<svg xmlns="http://www.w3.org/2000/svg" viewBox="-2 -2 28 28" width="200" height="200">
  <defs>
    <!-- Ray-traced metallic gradient for the duck body -->
    <radialGradient id="bodyGrad" cx="45%" cy="35%" r="65%" fx="35%" fy="25%">
      <stop offset="0%" stop-color="#FFE566">
        <animate attributeName="stop-color" values="#FFE566;#FFF7CC;#FFE566" dur="3s" repeatCount="indefinite"/>
      </stop>
      <stop offset="35%" stop-color="#FFD700">
        <animate attributeName="stop-color" values="#FFD700;#FFEA80;#FFD700" dur="3s" repeatCount="indefinite"/>
      </stop>
      <stop offset="70%" stop-color="#E6A800"/>
      <stop offset="100%" stop-color="#B8860B"/>
    </radialGradient>

    <!-- Specular highlight that moves across the duck -->
    <radialGradient id="specular" cx="50%" cy="30%" r="40%">
      <animate attributeName="cx" values="30%;60%;30%" dur="4s" repeatCount="indefinite"/>
      <animate attributeName="cy" values="20%;40%;20%" dur="5s" repeatCount="indefinite"/>
      <stop offset="0%" stop-color="white" stop-opacity="0.7"/>
      <stop offset="40%" stop-color="white" stop-opacity="0.15"/>
      <stop offset="100%" stop-color="white" stop-opacity="0"/>
    </radialGradient>

    <!-- Environment reflection gradient -->
    <linearGradient id="envReflect" x1="0" y1="0" x2="1" y2="1">
      <stop offset="0%" stop-color="#87CEEB" stop-opacity="0.15">
        <animate attributeName="stop-opacity" values="0.15;0.3;0.15" dur="6s" repeatCount="indefinite"/>
      </stop>
      <stop offset="50%" stop-color="#FFB347" stop-opacity="0.1"/>
      <stop offset="100%" stop-color="#98D8C8" stop-opacity="0.2">
        <animate attributeName="stop-opacity" values="0.2;0.05;0.2" dur="4s" repeatCount="indefinite"/>
      </stop>
    </linearGradient>

    <!-- Orbiting light/shiny object glow -->
    <radialGradient id="orbGlow" cx="50%" cy="50%" r="50%">
      <stop offset="0%" stop-color="#FFFFFF" stop-opacity="1"/>
      <stop offset="30%" stop-color="#FFE566" stop-opacity="0.8"/>
      <stop offset="60%" stop-color="#FFD700" stop-opacity="0.3"/>
      <stop offset="100%" stop-color="#FFD700" stop-opacity="0"/>
    </radialGradient>

    <!-- Lens flare for the shiny object -->
    <radialGradient id="lensFlare" cx="50%" cy="50%" r="50%">
      <stop offset="0%" stop-color="#FFFFFF" stop-opacity="0.9"/>
      <stop offset="20%" stop-color="#FFFACD" stop-opacity="0.5"/>
      <stop offset="50%" stop-color="#FFD700" stop-opacity="0.15"/>
      <stop offset="100%" stop-color="transparent"/>
    </radialGradient>

    <!-- Caustic light pattern filter -->
    <filter id="caustics" x="-20%" y="-20%" width="140%" height="140%">
      <feTurbulence type="fractalNoise" baseFrequency="0.03" numOctaves="3" seed="2">
        <animate attributeName="seed" values="2;8;2" dur="8s" repeatCount="indefinite"/>
      </feTurbulence>
      <feColorMatrix type="saturate" values="0"/>
      <feComponentTransfer>
        <feFuncA type="discrete" tableValues="0 0.04 0 0.03 0"/>
      </feComponentTransfer>
      <feComposite in="SourceGraphic" operator="over"/>
    </filter>

    <!-- Soft glow filter -->
    <filter id="softGlow" x="-50%" y="-50%" width="200%" height="200%">
      <feGaussianBlur in="SourceGraphic" stdDeviation="0.3" result="blur"/>
      <feComposite in="SourceGraphic" in2="blur" operator="over"/>
    </filter>

    <!-- Drop shadow for depth -->
    <filter id="shadow" x="-10%" y="-5%" width="130%" height="140%">
      <feDropShadow dx="0.3" dy="0.5" stdDeviation="0.6" flood-color="#4a3500" flood-opacity="0.35"/>
    </filter>

    <!-- Chromatic aberration on edges -->
    <filter id="chrAb" x="-5%" y="-5%" width="110%" height="110%">
      <feOffset in="SourceGraphic" dx="0.05" dy="0" result="red"/>
      <feOffset in="SourceGraphic" dx="-0.05" dy="0" result="blue"/>
      <feColorMatrix in="red" type="matrix" values="1 0 0 0 0  0 0 0 0 0  0 0 0 0 0  0 0 0 0.15 0" result="redOnly"/>
      <feColorMatrix in="blue" type="matrix" values="0 0 0 0 0  0 0 0 0 0  0 0 1 0 0  0 0 0 0.15 0" result="blueOnly"/>
      <feComposite in="SourceGraphic" in2="redOnly" operator="over" result="withRed"/>
      <feComposite in="withRed" in2="blueOnly" operator="over"/>
    </filter>

    <!-- Eye gleam -->
    <radialGradient id="eyeGrad" cx="40%" cy="35%" r="50%">
      <stop offset="0%" stop-color="#4a3500"/>
      <stop offset="60%" stop-color="#1a1000"/>
      <stop offset="100%" stop-color="#000"/>
    </radialGradient>
  </defs>

  <!-- Background glow - ambient light -->
  <circle cx="12" cy="12" r="13" fill="none" stroke="url(#orbGlow)" stroke-width="0.3" opacity="0.2">
    <animate attributeName="r" values="12;13.5;12" dur="4s" repeatCount="indefinite"/>
    <animate attributeName="opacity" values="0.2;0.35;0.2" dur="4s" repeatCount="indefinite"/>
  </circle>

  <!-- Main duck body with metallic shading + shadow -->
  <g filter="url(#shadow)">
    <path d="M8.5 5A1.5 1.5 0 0 0 7 6.5 1.5 1.5 0 0 0 8.5 8 1.5 1.5 0 0 0 10 6.5 1.5 1.5 0 0 0 8.5 5M10 2a5 5 0 0 1 5 5c0 1.7-.85 3.2-2.14 4.1 1.58.15 3.36.51 5.14 1.4 3 1.5 4-.5 4-.5s-1 9-7 9H9s-5 0-5-5c0-3 3-4 2-6-4 0-4-3.5-4-3.5 1 .5 2.24.5 3 .15A5.02 5.02 0 0 1 10 2"
      fill="url(#bodyGrad)" filter="url(#chrAb)"/>
  </g>

  <!-- Environment reflection layer -->
  <path d="M8.5 5A1.5 1.5 0 0 0 7 6.5 1.5 1.5 0 0 0 8.5 8 1.5 1.5 0 0 0 10 6.5 1.5 1.5 0 0 0 8.5 5M10 2a5 5 0 0 1 5 5c0 1.7-.85 3.2-2.14 4.1 1.58.15 3.36.51 5.14 1.4 3 1.5 4-.5 4-.5s-1 9-7 9H9s-5 0-5-5c0-3 3-4 2-6-4 0-4-3.5-4-3.5 1 .5 2.24.5 3 .15A5.02 5.02 0 0 1 10 2"
    fill="url(#envReflect)"/>

  <!-- Caustic light ripples on the body -->
  <path d="M8.5 5A1.5 1.5 0 0 0 7 6.5 1.5 1.5 0 0 0 8.5 8 1.5 1.5 0 0 0 10 6.5 1.5 1.5 0 0 0 8.5 5M10 2a5 5 0 0 1 5 5c0 1.7-.85 3.2-2.14 4.1 1.58.15 3.36.51 5.14 1.4 3 1.5 4-.5 4-.5s-1 9-7 9H9s-5 0-5-5c0-3 3-4 2-6-4 0-4-3.5-4-3.5 1 .5 2.24.5 3 .15A5.02 5.02 0 0 1 10 2"
    fill="none" filter="url(#caustics)" opacity="0.5"/>

  <!-- Specular highlight (moving) -->
  <path d="M8.5 5A1.5 1.5 0 0 0 7 6.5 1.5 1.5 0 0 0 8.5 8 1.5 1.5 0 0 0 10 6.5 1.5 1.5 0 0 0 8.5 5M10 2a5 5 0 0 1 5 5c0 1.7-.85 3.2-2.14 4.1 1.58.15 3.36.51 5.14 1.4 3 1.5 4-.5 4-.5s-1 9-7 9H9s-5 0-5-5c0-3 3-4 2-6-4 0-4-3.5-4-3.5 1 .5 2.24.5 3 .15A5.02 5.02 0 0 1 10 2"
    fill="url(#specular)"/>

  <!-- Eye with ray-traced reflection -->
  <circle cx="8.5" cy="6.5" r="1.3" fill="url(#eyeGrad)"/>
  <!-- Eye specular highlight (sharp reflection) -->
  <circle cx="8.1" cy="6.1" r="0.35" fill="white" opacity="0.95">
    <animate attributeName="opacity" values="0.95;0.7;0.95" dur="3s" repeatCount="indefinite"/>
  </circle>
  <!-- Secondary eye reflection -->
  <circle cx="8.8" cy="6.8" r="0.15" fill="white" opacity="0.4">
    <animate attributeName="opacity" values="0.4;0.2;0.4" dur="2s" repeatCount="indefinite"/>
  </circle>

  <!-- Rim light on duck edge (backlight effect) -->
  <path d="M10 2a5 5 0 0 1 5 5c0 1.7-.85 3.2-2.14 4.1 1.58.15 3.36.51 5.14 1.4 3 1.5 4-.5 4-.5s-1 9-7 9H9"
    fill="none" stroke="#FFFDE0" stroke-width="0.25" opacity="0.5">
    <animate attributeName="opacity" values="0.5;0.8;0.5" dur="5s" repeatCount="indefinite"/>
    <animate attributeName="stroke-width" values="0.25;0.4;0.25" dur="5s" repeatCount="indefinite"/>
  </path>

  <!-- ✨ ORBITING SHINY OBJECT (golden gem/light) -->
  <g>
    <animateTransform attributeName="transform" type="rotate"
      values="0 12 11;360 12 11" dur="6s" repeatCount="indefinite"/>

    <!-- Outer glow -->
    <circle cx="12" cy="1.5" r="1.8" fill="url(#lensFlare)" opacity="0.4">
      <animate attributeName="r" values="1.8;2.5;1.8" dur="1.5s" repeatCount="indefinite"/>
      <animate attributeName="opacity" values="0.4;0.6;0.4" dur="1.5s" repeatCount="indefinite"/>
    </circle>

    <!-- Core shiny object -->
    <circle cx="12" cy="1.5" r="0.6" fill="url(#orbGlow)" filter="url(#softGlow)">
      <animate attributeName="r" values="0.6;0.8;0.6" dur="1.5s" repeatCount="indefinite"/>
    </circle>

    <!-- Inner bright core -->
    <circle cx="12" cy="1.5" r="0.25" fill="white" opacity="0.95">
      <animate attributeName="opacity" values="0.95;0.6;0.95" dur="0.8s" repeatCount="indefinite"/>
    </circle>

    <!-- Light rays from the shiny object -->
    <line x1="12" y1="1.5" x2="12" y2="0" stroke="white" stroke-width="0.08" opacity="0.3">
      <animate attributeName="opacity" values="0.3;0.6;0.3" dur="1s" repeatCount="indefinite"/>
    </line>
    <line x1="12" y1="1.5" x2="12.8" y2="0.7" stroke="white" stroke-width="0.08" opacity="0.25">
      <animate attributeName="opacity" values="0.25;0.5;0.25" dur="1.2s" repeatCount="indefinite"/>
    </line>
    <line x1="12" y1="1.5" x2="11.2" y2="0.7" stroke="white" stroke-width="0.08" opacity="0.25">
      <animate attributeName="opacity" values="0.25;0.5;0.25" dur="1.1s" repeatCount="indefinite"/>
    </line>

    <!-- Star sparkle on the gem -->
    <path d="M12 0.9 L12.12 1.38 L12.6 1.5 L12.12 1.62 L12 2.1 L11.88 1.62 L11.4 1.5 L11.88 1.38 Z"
      fill="white" opacity="0.6">
      <animate attributeName="opacity" values="0.6;0.1;0.6" dur="2s" repeatCount="indefinite"/>
      <animateTransform attributeName="transform" type="rotate"
        values="0 12 1.5;180 12 1.5;360 12 1.5" dur="4s" repeatCount="indefinite"/>
    </path>
  </g>

  <!-- Secondary smaller sparkle orbiting opposite direction -->
  <g>
    <animateTransform attributeName="transform" type="rotate"
      values="180 12 11;-180 12 11" dur="9s" repeatCount="indefinite"/>
    <circle cx="12" cy="0.5" r="0.3" fill="white" opacity="0.35">
      <animate attributeName="opacity" values="0.35;0.65;0.35" dur="2s" repeatCount="indefinite"/>
    </circle>
    <circle cx="12" cy="0.5" r="0.8" fill="url(#lensFlare)" opacity="0.15">
      <animate attributeName="opacity" values="0.15;0.3;0.15" dur="2s" repeatCount="indefinite"/>
    </circle>
  </g>

  <!-- Scattered light particles around duck -->
  <circle cx="5" cy="4" r="0.12" fill="white" opacity="0">
    <animate attributeName="opacity" values="0;0.7;0" dur="3s" begin="0s" repeatCount="indefinite"/>
  </circle>
  <circle cx="17" cy="8" r="0.1" fill="#FFE566" opacity="0">
    <animate attributeName="opacity" values="0;0.6;0" dur="2.5s" begin="0.8s" repeatCount="indefinite"/>
  </circle>
  <circle cx="14" cy="3" r="0.08" fill="white" opacity="0">
    <animate attributeName="opacity" values="0;0.8;0" dur="2s" begin="1.5s" repeatCount="indefinite"/>
  </circle>
  <circle cx="6" cy="14" r="0.1" fill="#FFD700" opacity="0">
    <animate attributeName="opacity" values="0;0.5;0" dur="3.5s" begin="0.3s" repeatCount="indefinite"/>
  </circle>
  <circle cx="19" cy="12" r="0.09" fill="white" opacity="0">
    <animate attributeName="opacity" values="0;0.7;0" dur="2.8s" begin="2s" repeatCount="indefinite"/>
  </circle>
  <circle cx="3" cy="9" r="0.11" fill="#FFFACD" opacity="0">
    <animate attributeName="opacity" values="0;0.5;0" dur="4s" begin="1s" repeatCount="indefinite"/>
  </circle>
</svg>